<svg xmlns="http://www.w3.org/2000/svg" viewBox="0 0 13807 1200" width="13807" height="1200">
  <path d="M284 506H988V696H284ZM960 285H1210V925H960ZM70 285H320V925H70Z" fill="white"/><path d="M1925 945Q1707 945 1574.0 906.5Q1441 868 1380.5 792.5Q1320 717 1320 605Q1320 493 1380.5 417.5Q1441 342 1574.0 303.5Q1707 265 1925 265Q2143 265 2276.0 303.5Q2409 342 2469.5 417.5Q2530 493 2530 605Q2530 717 2469.5 792.5Q2409 868 2276.0 906.5Q2143 945 1925 945ZM1925 755Q2028 755 2103.0 742.5Q2178 730 2219.0 697.5Q2260 665 2260 605Q2260 545 2219.0 512.5Q2178 480 2103.0 467.5Q2028 455 1925 455Q1822 455 1744.5 467.5Q1667 480 1623.5 512.5Q1580 545 1580 605Q1580 665 1623.5 697.5Q1667 730 1744.5 742.5Q1822 755 1925 755Z" fill="white"/><path d="M3235 945Q3017 945 2884.0 906.5Q2751 868 2690.5 792.5Q2630 717 2630 605Q2630 493 2690.5 417.5Q2751 342 2884.0 303.5Q3017 265 3235 265Q3453 265 3586.0 303.5Q3719 342 3779.5 417.5Q3840 493 3840 605Q3840 717 3779.5 792.5Q3719 868 3586.0 906.5Q3453 945 3235 945ZM3235 755Q3338 755 3413.0 742.5Q3488 730 3529.0 697.5Q3570 665 3570 605Q3570 545 3529.0 512.5Q3488 480 3413.0 467.5Q3338 455 3235 455Q3132 455 3054.5 467.5Q2977 480 2933.5 512.5Q2890 545 2890 605Q2890 665 2933.5 697.5Q2977 730 3054.5 742.5Q3132 755 3235 755Z" fill="white"/><path d="M4744 849H4594L5140 285H5390V925H5140V489L5215 520L4820 925H4520L4124 521L4200 490V925H3950V285H4200Z" fill="white"/><path d="M5674 828V678H6358V828ZM5450 925 5879 285H6157L6590 925H6315L5944 352H6093L5725 925Z" fill="white"/><path d="M7653 729 7560 782V285H7810V925H7560L6807 489L6900 435V925H6650V285H6900Z" fill="white"/><path d="M8144 506H8848V696H8144ZM8820 285H9070V925H8820ZM7930 285H8180V925H7930Z" fill="white"/><path d="M9354 828V678H10038V828ZM9130 925 9559 285H9837L10270 925H9995L9624 352H9773L9405 925Z" fill="white"/><path d="M11515 658Q11510 753 11446.0 817.0Q11382 881 11257.5 913.0Q11133 945 10943 945Q10798 945 10683.0 929.5Q10568 914 10487.0 876.5Q10406 839 10363.0 774.0Q10320 709 10320 610Q10320 511 10363.0 444.5Q10406 378 10487.0 338.5Q10568 299 10683.0 282.0Q10798 265 10943 265Q11133 265 11258.0 299.5Q11383 334 11447.0 401.0Q11511 468 11516 564H11256Q11244 532 11212.0 507.5Q11180 483 11116.0 469.0Q11052 455 10943 455Q10815 455 10735.0 470.5Q10655 486 10618.0 520.0Q10581 554 10581 610Q10581 661 10618.0 693.0Q10655 725 10735.0 740.0Q10815 755 10943 755Q11052 755 11115.5 742.0Q11179 729 11211.0 706.5Q11243 684 11255 658Z" fill="white"/><path d="M12159 610V554L12736 925H12364L11874 585L12326 285H12682ZM11626 285H11876V925H11626Z" fill="white"/><path d="M12786 690H13059Q13066 711 13100.0 725.5Q13134 740 13191.5 747.5Q13249 755 13325 755Q13400 755 13443.5 750.5Q13487 746 13505.0 734.5Q13523 723 13523 703Q13523 684 13494.0 673.5Q13465 663 13391.0 659.0Q13317 655 13183 655Q13083 655 13010.5 645.5Q12938 636 12891.5 615.5Q12845 595 12823.0 563.5Q12801 532 12801 488Q12801 412 12852.5 362.5Q12904 313 13008.5 288.5Q13113 264 13270 264Q13500 264 13621.5 330.5Q13743 397 13743 522H13484Q13479 489 13422.0 471.5Q13365 454 13260 454Q13156 454 13105.5 466.0Q13055 478 13055 507Q13055 522 13069.0 531.0Q13083 540 13117.5 545.5Q13152 551 13215.0 553.0Q13278 555 13375 555Q13482 555 13557.0 565.5Q13632 576 13678.5 597.0Q13725 618 13746.0 650.5Q13767 683 13767 727Q13767 803 13719.0 851.0Q13671 899 13567.0 922.0Q13463 945 13295 945Q13200 945 13120.5 934.0Q13041 923 12979.0 901.5Q12917 880 12874.0 848.5Q12831 817 12808.5 777.5Q12786 738 12786 690Z" fill="white"/>
</svg>